<svg width="48" height="48" viewBox="0 0 48 48" fill="none" xmlns="http://www.w3.org/2000/svg">
<g clip-path="url(#clip0_1417_2084)">
<path d="M44 3.20002H42.8945L41.9575 1.32662C41.7595 0.926983 41.4534 0.590852 41.0741 0.356365C40.6947 0.121879 40.2572 -0.00157466 39.8112 1.51636e-05H36.9886C36.5426 -0.00153722 36.1052 0.121934 35.7258 0.356418C35.3465 0.590903 35.0405 0.927014 34.8425 1.32662L33.9055 3.20002H30.2527C30.0878 2.73373 29.7829 2.32976 29.3797 2.04337C28.9764 1.75697 28.4946 1.60213 28 1.60002H26.4C24.1918 1.60272 22.4027 3.39182 22.4 5.60002V16.8C22.4031 17.6684 22.6914 18.5116 23.2207 19.2H21.6C21.3878 19.2 21.1843 19.1157 21.0343 18.9657C20.8843 18.8157 20.8 18.6122 20.8 18.4V1.51636e-05H2.4C1.0746 1.51636e-05 0 1.07462 0 2.40002V7.20002C0 8.52542 1.0746 9.60002 2.4 9.60002H8V28.8C8.0035 31.8914 10.5086 34.3965 13.6 34.4H17.6V35.2C17.6 36.5254 18.6746 37.6 20 37.6V39.2H19.2C18.3164 39.2 17.6 39.9164 17.6 40.8V42.4C17.6 43.2836 18.3164 44 19.2 44H20V48H21.6V37.6H26.4V48H28V37.6C29.3254 37.6 30.4 36.5254 30.4 35.2V28.8C30.4 27.4746 29.3254 26.4 28 26.4H20C18.6746 26.4 17.6 27.4746 17.6 28.8V29.6H13.6C13.3878 29.6 13.1843 29.5157 13.0343 29.3657C12.8843 29.2157 12.8 29.0122 12.8 28.8V9.60002H16V18.4C16.0035 21.4914 18.5086 23.9965 21.6 24H33.6V24.8C33.6 26.1254 34.6746 27.2 36 27.2H42.4C43.7254 27.2 44.8 26.1254 44.8 24.8V20.72C46.6613 20.3371 47.9977 18.7 48 16.8V7.20002C47.9973 4.99182 46.2082 3.20272 44 3.20002ZM4.8 8.00002H2.4C2.18783 8.00002 1.98434 7.91573 1.83431 7.7657C1.68429 7.61567 1.6 7.41219 1.6 7.20002V2.40002C1.6 2.18784 1.68429 1.98436 1.83431 1.83433C1.98434 1.6843 2.18783 1.60002 2.4 1.60002H4.8V8.00002ZM19.2 42.4V40.8H20V42.4H19.2ZM36.2734 2.04262C36.3398 1.90971 36.4419 1.7979 36.5682 1.71973C36.6945 1.64156 36.8401 1.60011 36.9887 1.60002H39.8113C39.9599 1.60011 40.1055 1.64156 40.2318 1.71973C40.3581 1.7979 40.4602 1.90971 40.5266 2.04262L41.1055 3.20002H35.6945L36.2734 2.04262ZM24 16.8V5.60002C24 4.27462 25.0746 3.20002 26.4 3.20002H28C28.2122 3.20002 28.4157 3.2843 28.5657 3.43433C28.7157 3.58436 28.8 3.78784 28.8 4.00002V19.2H26.4C25.0746 19.2 24 18.1254 24 16.8ZM19.2 28.8C19.2 28.5878 19.2843 28.3844 19.4343 28.2343C19.5843 28.0843 19.7878 28 20 28H28C28.2122 28 28.4157 28.0843 28.5657 28.2343C28.7157 28.3844 28.8 28.5878 28.8 28.8V35.2C28.8 35.4122 28.7157 35.6157 28.5657 35.7657C28.4157 35.9157 28.2122 36 28 36H20C19.7878 36 19.5843 35.9157 19.4343 35.7657C19.2843 35.6157 19.2 35.4122 19.2 35.2V28.8ZM13.6 31.2H17.6V32.8H13.6C11.3918 32.7973 9.6027 31.0082 9.6 28.8V9.60002H11.2V28.8C11.2 30.1254 12.2746 31.2 13.6 31.2ZM6.4 8.00002V1.60002H16V8.00002H6.4ZM21.6 22.4C19.3918 22.3973 17.6027 20.6082 17.6 18.4V1.60002H19.2V18.4C19.2 19.7254 20.2746 20.8 21.6 20.8H33.6V22.4H21.6ZM43.2 24.8C43.2 25.0122 43.1157 25.2157 42.9657 25.3657C42.8157 25.5157 42.6122 25.6 42.4 25.6H36C35.7878 25.6 35.5843 25.5157 35.4343 25.3657C35.2843 25.2157 35.2 25.0122 35.2 24.8V20.8H43.2V24.8ZM46.4 16.8C46.4 18.1254 45.3254 19.2 44 19.2H30.4V4.80002H44C45.3254 4.80002 46.4 5.87462 46.4 7.20002V16.8Z" fill="#0054AA"/>
<path d="M38.4 6.40002C35.307 6.40002 32.8 8.90702 32.8 12C32.8 15.093 35.307 17.6 38.4 17.6C41.493 17.6 44 15.093 44 12C43.9965 8.90862 41.4914 6.40352 38.4 6.40002ZM38.4 16C36.191 16 34.4 14.209 34.4 12C34.4 9.79102 36.191 8.00002 38.4 8.00002C40.609 8.00002 42.4 9.79102 42.4 12C42.3973 14.2082 40.6082 15.9973 38.4 16ZM36.8 22.4H38.4V24H36.8V22.4ZM40 22.4H41.6V24H40V22.4Z" fill="#0054AA"/>
<path d="M38.4 9.59998C37.0746 9.59998 36 10.6746 36 12C36 13.3254 37.0746 14.4 38.4 14.4C39.7254 14.4 40.8 13.3254 40.8 12C40.8 10.6746 39.7254 9.59998 38.4 9.59998ZM38.4 12.8C38.1878 12.8 37.9843 12.7157 37.8343 12.5657C37.6843 12.4156 37.6 12.2121 37.6 12C37.6 11.7878 37.6843 11.5843 37.8343 11.4343C37.9843 11.2843 38.1878 11.2 38.4 11.2C38.6121 11.2 38.8156 11.2843 38.9657 11.4343C39.1157 11.5843 39.2 11.7878 39.2 12C39.2 12.2121 39.1157 12.4156 38.9657 12.5657C38.8156 12.7157 38.6121 12.8 38.4 12.8ZM24 34.4C25.3254 34.4 26.4 33.3254 26.4 32C26.4 30.6746 25.3254 29.6 24 29.6C22.6746 29.6 21.6 30.6746 21.6 32C21.6 33.3254 22.6746 34.4 24 34.4ZM24 31.2C24.2121 31.2 24.4156 31.2843 24.5657 31.4343C24.7157 31.5843 24.8 31.7878 24.8 32C24.8 32.2122 24.7157 32.4156 24.5657 32.5657C24.4156 32.7157 24.2121 32.8 24 32.8C23.7878 32.8 23.5843 32.7157 23.4343 32.5657C23.2843 32.4156 23.2 32.2122 23.2 32C23.2 31.7878 23.2843 31.5843 23.4343 31.4343C23.5843 31.2843 23.7878 31.2 24 31.2Z" fill="#0054AA"/>
</g>
<defs>
<clipPath id="clip0_1417_2084">
<rect width="48" height="48" fill="white"/>
</clipPath>
</defs>
</svg>
