<svg width="48" height="48" viewBox="0 0 48 48" fill="none" xmlns="http://www.w3.org/2000/svg">
<g clip-path="url(#clip0_1417_670)">
<path d="M27.304 32.5112C28.0146 31.9928 28.5928 31.3142 28.9917 30.5303C29.3907 29.7464 29.5991 28.8795 29.6 28C29.6 24.9128 27.088 22.4 24 22.4C20.912 22.4 18.4 24.9128 18.4 28V28.008C18.402 28.8861 18.6109 29.7514 19.0096 30.5338C19.4084 31.3162 19.9858 31.9936 20.6952 32.5112C18.408 33.488 16.8 35.7592 16.8 38.4V47.2C16.8 47.4122 16.8843 47.6157 17.0343 47.7657C17.1843 47.9157 17.3878 48 17.6 48H30.4C30.6122 48 30.8157 47.9157 30.9657 47.7657C31.1157 47.6157 31.2 47.4122 31.2 47.2V38.4C31.2 35.7592 29.592 33.488 27.304 32.5112ZM24 34.5888L25.5184 37.6256L24 41.1688L22.4816 37.6256L24 34.5888ZM24 24C24.778 24.0012 25.5388 24.2291 26.1892 24.656C26.8397 25.0828 27.3516 25.69 27.6624 26.4032C26.5208 25.8784 25.2816 25.6 24 25.6C22.7184 25.6 21.4792 25.8784 20.3376 26.4032C20.6484 25.69 21.1603 25.0828 21.8108 24.656C22.4612 24.2291 23.222 24.0012 24 24ZM20.04 28.3928C21.22 27.6136 22.5784 27.2 24 27.2C25.4216 27.2 26.78 27.6136 27.96 28.3928C27.76 30.412 26.0712 32 24 32C21.9288 32 20.24 30.412 20.04 28.3928ZM29.6 46.4H18.4V38.4C18.4017 37.2154 18.8406 36.0731 19.6327 35.1923C20.4248 34.3115 21.5142 33.7542 22.692 33.6272L20.8848 37.2416C20.8328 37.3456 20.8042 37.4597 20.8008 37.5759C20.7975 37.6921 20.8196 37.8076 20.8656 37.9144L23.2656 43.5144C23.3271 43.6583 23.4294 43.781 23.56 43.8673C23.6906 43.9536 23.8436 43.9996 24.0001 43.9997C24.1566 43.9998 24.3097 43.9539 24.4404 43.8678C24.5711 43.7817 24.6736 43.6591 24.7352 43.5152L27.1352 37.9152C27.228 37.6992 27.2208 37.4528 27.116 37.2424L25.3088 33.628C26.4864 33.7548 27.5757 34.312 28.3677 35.1927C29.1597 36.0734 29.5985 37.2156 29.6 38.4V46.4ZM9.4704 30.8856C10.0116 30.436 10.4472 29.8726 10.7461 29.2356C11.0451 28.5987 11.2 27.9036 11.2 27.2C11.2 24.5528 9.0472 22.4 6.4 22.4C3.7528 22.4 1.6 24.5528 1.6 27.2C1.6 28.68 2.2736 30.004 3.3296 30.8856C1.3712 31.7584 0 33.7208 0 36V44C0 44.2122 0.0842854 44.4157 0.234315 44.5657C0.384344 44.7157 0.587827 44.8 0.8 44.8H12C12.2122 44.8 12.4157 44.7157 12.5657 44.5657C12.7157 44.4157 12.8 44.2122 12.8 44V36C12.8 33.7208 11.4288 31.7584 9.4704 30.8856ZM6.4 33.3536L7.1488 35.2248L6.4 37.4704L5.6512 35.2248L6.4 33.3536ZM6.4 30.4C4.7088 30.4 3.3344 29.0776 3.2216 27.4144C4.164 26.7608 5.2504 26.4 6.4 26.4C7.5496 26.4 8.636 26.7608 9.5784 27.4144C9.4656 29.0776 8.0912 30.4 6.4 30.4ZM6.4 24C7.4328 24 8.344 24.5 8.9288 25.2624C7.29948 24.6449 5.50052 24.6449 3.8712 25.2624C4.16703 24.8714 4.54917 24.5541 4.98781 24.3351C5.42645 24.1162 5.90974 24.0015 6.4 24ZM11.2 43.2H1.6V36C1.6 33.9304 3.1856 32.2432 5.2024 32.04L4.0576 34.9032C3.988 35.0792 3.9816 35.2736 4.0416 35.4536L5.6416 40.2536C5.69404 40.4135 5.79568 40.5528 5.93201 40.6515C6.06833 40.7503 6.23237 40.8034 6.40069 40.8033C6.56901 40.8032 6.73299 40.7499 6.86921 40.651C7.00544 40.5522 7.10693 40.4128 7.1592 40.2528L8.7592 35.4528C8.81882 35.2732 8.81315 35.0783 8.7432 34.9024L7.5984 32.0392C9.6144 32.2432 11.2 33.9304 11.2 36V43.2ZM44.6704 30.8856C45.2116 30.436 45.6472 29.8726 45.9461 29.2356C46.2451 28.5987 46.4 27.9036 46.4 27.2C46.4 24.5528 44.2472 22.4 41.6 22.4C38.9528 22.4 36.8 24.5528 36.8 27.2C36.8 28.68 37.4736 30.004 38.5296 30.8856C36.5712 31.7584 35.2 33.7208 35.2 36V44C35.2 44.2122 35.2843 44.4157 35.4343 44.5657C35.5843 44.7157 35.7878 44.8 36 44.8H47.2C47.4122 44.8 47.6157 44.7157 47.7657 44.5657C47.9157 44.4157 48 44.2122 48 44V36C48 33.7208 46.6288 31.7584 44.6704 30.8856ZM41.6 33.3536L42.3488 35.2248L41.6 37.4704L40.8512 35.2248L41.6 33.3536ZM41.6 30.4C39.9088 30.4 38.5344 29.0776 38.4216 27.4144C39.364 26.7608 40.4504 26.4 41.6 26.4C42.7496 26.4 43.836 26.7608 44.7784 27.4144C44.6656 29.0776 43.2912 30.4 41.6 30.4ZM41.6 24C42.6328 24 43.544 24.5 44.1288 25.2624C42.4995 24.6449 40.7005 24.6449 39.0712 25.2624C39.367 24.8714 39.7492 24.5541 40.1878 24.3351C40.6264 24.1162 41.1097 24.0015 41.6 24ZM46.4 43.2H36.8V36C36.8 33.9304 38.3856 32.2432 40.4024 32.04L39.2576 34.9032C39.188 35.0792 39.1816 35.2736 39.2416 35.4536L40.8416 40.2536C40.894 40.4135 40.9957 40.5528 41.132 40.6515C41.2683 40.7503 41.4324 40.8034 41.6007 40.8033C41.769 40.8032 41.933 40.7499 42.0692 40.651C42.2054 40.5522 42.3069 40.4128 42.3592 40.2528L43.9592 35.4528C44.0188 35.2732 44.0132 35.0783 43.9432 34.9024L42.7984 32.0392C44.8144 32.2432 46.4 33.9304 46.4 36V43.2ZM17.6416 8.02399C17.5464 8.30799 17.6184 8.62159 17.8272 8.83679L20.3448 11.4176L19.7488 15.0712C19.7245 15.2195 19.7423 15.3716 19.8004 15.5101C19.8585 15.6487 19.9545 15.7681 20.0773 15.8547C20.2001 15.9413 20.3448 15.9915 20.4948 15.9997C20.6448 16.0078 20.7941 15.9735 20.9256 15.9008L24 14.2008L27.0736 15.9C27.205 15.9728 27.3543 16.0071 27.5043 15.9989C27.6543 15.9907 27.7989 15.9403 27.9216 15.8536C28.0444 15.7671 28.1404 15.6477 28.1985 15.5092C28.2567 15.3707 28.2747 15.2186 28.2504 15.0704L27.6544 11.4168L30.172 8.83599C30.2745 8.73059 30.3459 8.59903 30.3786 8.45572C30.4112 8.3124 30.4038 8.16287 30.3571 8.02349C30.3105 7.88411 30.2263 7.76027 30.1139 7.66553C30.0016 7.5708 29.8653 7.50882 29.72 7.48639L26.2736 6.95999L24.724 3.65999C24.6599 3.52202 24.5576 3.40525 24.4294 3.32343C24.3011 3.24161 24.1521 3.19814 24 3.19814C23.8479 3.19814 23.6989 3.24161 23.5706 3.32343C23.4424 3.40525 23.3401 3.52202 23.276 3.65999L21.7264 6.95999L18.2792 7.48719C17.9832 7.53279 17.7368 7.73999 17.6416 8.02399ZM22.3904 8.47759C22.5202 8.45791 22.6432 8.40651 22.7484 8.32794C22.8536 8.24938 22.9378 8.14608 22.9936 8.02719L24 5.88319L25.0064 8.02719C25.062 8.14616 25.1462 8.24953 25.2515 8.32811C25.3567 8.40669 25.4797 8.45804 25.6096 8.47759L27.94 8.83359L26.2272 10.5888C26.1398 10.6784 26.0746 10.7872 26.037 10.9066C25.9993 11.0259 25.9902 11.1525 26.0104 11.276L26.4064 13.7024L24.3872 12.5856C24.2687 12.52 24.1354 12.4856 24 12.4856C23.8646 12.4856 23.7313 12.52 23.6128 12.5856L21.5936 13.7024L21.9896 11.276C22.0099 11.1525 22.0008 11.0259 21.9631 10.9065C21.9255 10.7872 21.8603 10.6783 21.7728 10.5888L20.06 8.83359L22.3904 8.47759ZM10.3584 14.1904C10.3116 14.0511 10.2273 13.9273 10.1149 13.8326C10.0024 13.7379 9.86608 13.676 9.7208 13.6536L7.932 13.38L7.1248 11.66C7.06029 11.5223 6.95789 11.4059 6.8296 11.3243C6.7013 11.2428 6.55242 11.1995 6.4004 11.1995C6.24838 11.1995 6.0995 11.2428 5.9712 11.3243C5.84291 11.4059 5.74051 11.5223 5.676 11.66L4.8688 13.38L3.08 13.6536C2.93442 13.6755 2.79771 13.7372 2.68497 13.8318C2.57222 13.9265 2.48781 14.0505 2.44106 14.1901C2.39431 14.3297 2.38702 14.4795 2.42001 14.623C2.453 14.7664 2.52497 14.898 2.628 15.0032L3.9456 16.3536L3.6328 18.2704C3.60845 18.4187 3.62635 18.5708 3.68444 18.7093C3.74254 18.8479 3.83848 18.9673 3.96128 19.0539C4.08408 19.1405 4.22879 19.1907 4.37882 19.1989C4.52884 19.207 4.67814 19.1727 4.8096 19.1L6.4 18.2208L7.9904 19.1C8.1218 19.1728 8.27108 19.2071 8.42108 19.1989C8.57109 19.1907 8.71574 19.1403 8.8384 19.0536C8.96121 18.9671 9.05718 18.8477 9.11533 18.7092C9.17348 18.5707 9.19145 18.4186 9.1672 18.2704L8.8544 16.3536L10.172 15.0032C10.275 14.898 10.3469 14.7665 10.3797 14.6231C10.4126 14.4796 10.4053 14.3299 10.3584 14.1904ZM7.4272 15.5256C7.33983 15.6152 7.2747 15.724 7.23705 15.8434C7.19939 15.9627 7.19027 16.0893 7.2104 16.2128L7.3232 16.9024L6.7872 16.6064C6.6686 16.541 6.5354 16.5068 6.4 16.5068C6.2646 16.5068 6.1314 16.541 6.0128 16.6064L5.4768 16.9024L5.5896 16.2128C5.6098 16.0893 5.6007 15.9627 5.56305 15.8434C5.52539 15.724 5.46022 15.6152 5.3728 15.5256L4.86 15.0008L5.532 14.8976C5.66183 14.8779 5.7848 14.8265 5.89002 14.7479C5.99523 14.6694 6.07945 14.5661 6.1352 14.4472L6.4 13.8832L6.6648 14.4464C6.72049 14.5653 6.80469 14.6687 6.90992 14.7472C7.01515 14.8258 7.13815 14.8772 7.268 14.8968L7.94 15L7.4272 15.5256ZM45.5584 14.1904C45.5116 14.0511 45.4273 13.9273 45.3149 13.8326C45.2024 13.7379 45.0661 13.676 44.9208 13.6536L43.132 13.38L42.3248 11.66C42.2603 11.5223 42.1579 11.4059 42.0296 11.3243C41.9013 11.2428 41.7524 11.1995 41.6004 11.1995C41.4484 11.1995 41.2995 11.2428 41.1712 11.3243C41.0429 11.4059 40.9405 11.5223 40.876 11.66L40.0688 13.38L38.28 13.6536C38.1344 13.6755 37.9977 13.7372 37.885 13.8318C37.7722 13.9265 37.6878 14.0505 37.6411 14.1901C37.5943 14.3297 37.587 14.4795 37.62 14.623C37.653 14.7664 37.725 14.898 37.828 15.0032L39.1456 16.3536L38.8328 18.2704C38.8085 18.4187 38.8263 18.5708 38.8844 18.7093C38.9425 18.8479 39.0385 18.9673 39.1613 19.0539C39.2841 19.1405 39.4288 19.1907 39.5788 19.1989C39.7288 19.207 39.8781 19.1727 40.0096 19.1L41.6 18.2208L43.1904 19.1C43.3218 19.1728 43.4711 19.2071 43.6211 19.1989C43.7711 19.1907 43.9157 19.1403 44.0384 19.0536C44.1612 18.9671 44.2572 18.8477 44.3153 18.7092C44.3735 18.5707 44.3915 18.4186 44.3672 18.2704L44.0544 16.3536L45.372 15.0032C45.475 14.898 45.5469 14.7665 45.5798 14.6231C45.6126 14.4796 45.6053 14.3299 45.5584 14.1904ZM42.6272 15.5256C42.5398 15.6152 42.4747 15.724 42.437 15.8434C42.3994 15.9627 42.3903 16.0893 42.4104 16.2128L42.5232 16.9024L41.9872 16.6064C41.8686 16.541 41.7354 16.5068 41.6 16.5068C41.4646 16.5068 41.3314 16.541 41.2128 16.6064L40.6768 16.9024L40.7896 16.2128C40.8098 16.0893 40.8007 15.9627 40.763 15.8434C40.7254 15.724 40.6602 15.6152 40.5728 15.5256L40.06 15.0008L40.732 14.8976C40.8618 14.8779 40.9848 14.8265 41.09 14.7479C41.1952 14.6694 41.2794 14.5661 41.3352 14.4472L41.6 13.8832L41.8648 14.4464C41.9205 14.5653 42.0047 14.6687 42.1099 14.7472C42.2151 14.8258 42.3381 14.8772 42.468 14.8968L43.14 15L42.6272 15.5256ZM14.9928 5.19759L16.3776 5.99919C16.6224 5.57599 16.904 5.17119 17.2136 4.79679L15.9816 3.77679C15.6132 4.22217 15.2825 4.6974 14.9928 5.19759ZM13.7856 8.43199L15.3568 8.73359C15.4488 8.25439 15.5816 7.78079 15.752 7.32399L14.2528 6.76479C14.0509 7.30653 13.8946 7.86421 13.7856 8.43199ZM18.1688 19.0136C18.6464 19.3376 19.1544 19.624 19.6784 19.8632L20.3432 18.4088C19.899 18.2053 19.4725 17.9653 19.068 17.6912L18.1688 19.0136ZM17.1904 2.53999L18.2384 3.74958C18.6072 3.43038 19.0048 3.13839 19.4216 2.88478L18.5872 1.51918C18.0952 1.81918 17.6256 2.16319 17.1904 2.53999ZM28.0944 19.9624C28.6261 19.7352 29.1375 19.4633 29.6232 19.1496L28.7568 17.804C28.3456 18.0688 27.9112 18.3 27.4648 18.4912L28.0944 19.9624ZM24.7416 20.7744C25.3181 20.7335 25.8902 20.6449 26.452 20.5096L26.076 18.9552C25.6032 19.0696 25.116 19.144 24.628 19.1792L24.7416 20.7744ZM23.0128 20.7528L23.1632 19.1608C22.6764 19.1144 22.1942 19.028 21.7216 18.9024L21.3088 20.448C21.8673 20.5971 22.4373 20.699 23.0128 20.7528ZM31.7256 14.6176L33.1296 15.3848C33.4072 14.8768 33.6432 14.344 33.8304 13.8016L32.3184 13.2784C32.1584 13.7405 31.9601 14.1885 31.7256 14.6176ZM32.68 11.8608L34.2584 12.1232C34.352 11.5576 34.4 10.9784 34.4 10.4H32.8C32.8 10.8896 32.7592 11.3816 32.68 11.8608ZM17.9264 16.768C17.5724 16.4302 17.247 16.0636 16.9536 15.672L15.6728 16.6312C16.0176 17.092 16.404 17.5272 16.8216 17.9256L17.9264 16.768ZM15.6152 13.08L14.0912 13.5672C14.2664 14.1152 14.4896 14.6528 14.7544 15.1664L16.176 14.432C15.9515 13.9978 15.7639 13.5456 15.6152 13.08ZM29.9184 16.9128L30.9944 18.0968C31.4221 17.7077 31.8167 17.2839 32.1744 16.8296L30.9168 15.8408C30.6152 16.224 30.2792 16.5848 29.9184 16.9128ZM15.2 10.4L15.2024 10.1912L13.6032 10.1504L13.6 10.4C13.6 10.8952 13.6352 11.3928 13.7048 11.8792L15.288 11.6528C15.2294 11.2378 15.2 10.8191 15.2 10.4ZM25.0472 1.66078L25.2328 0.0719841C24.66 0.00446228 24.0825 -0.0156059 23.5064 0.0119842L23.5808 1.61038C24.0702 1.5876 24.5606 1.60446 25.0472 1.66078ZM29.1048 3.23198C29.5024 3.51519 29.8784 3.83439 30.2224 4.17919L31.3544 3.04799C30.9457 2.63947 30.5039 2.2654 30.0336 1.92958L29.1048 3.23198ZM26.9304 0.418384L26.48 1.95438C26.9493 2.09231 27.4063 2.26892 27.8464 2.48239L28.5456 1.04318C28.0252 0.790996 27.485 0.582025 26.9304 0.418384ZM21.7896 0.234384C21.2248 0.356784 20.6672 0.527184 20.1336 0.742384L20.7296 2.22638C21.1832 2.04469 21.6512 1.90152 22.1288 1.79838L21.7896 0.234384ZM34.328 9.16639C34.2603 8.59234 34.1444 8.025 33.9816 7.47039L32.4464 7.91999C32.5832 8.38799 32.6816 8.87039 32.7384 9.35359L34.328 9.16639ZM31.1696 5.29679C31.4528 5.69359 31.704 6.11599 31.9168 6.55439L33.356 5.85439C33.1028 5.33514 32.8071 4.83771 32.472 4.36719L31.1696 5.29679Z" fill="#0054AA"/>
</g>
<defs>
<clipPath id="clip0_1417_670">
<rect width="48" height="48" fill="white"/>
</clipPath>
</defs>
</svg>
