<svg width="48" height="48" viewBox="0 0 48 48" fill="none" xmlns="http://www.w3.org/2000/svg">
<path d="M45.8448 39.715H44.4863V29.1318C44.4863 29.0393 44.4681 28.9476 44.4327 28.8622C44.3973 28.7767 44.3454 28.699 44.28 28.6336C44.2146 28.5682 44.1369 28.5163 44.0514 28.4809C43.9659 28.4455 43.8743 28.4272 43.7818 28.4272C43.6893 28.4272 43.5977 28.4455 43.5122 28.4809C43.4267 28.5163 43.3491 28.5682 43.2836 28.6336C43.2182 28.699 43.1663 28.7767 43.1309 28.8622C43.0955 28.9476 43.0773 29.0393 43.0773 29.1318V39.715H18.5117V29.3101C18.5117 29.1232 18.4375 28.944 18.3053 28.8119C18.1732 28.6798 17.994 28.6056 17.8072 28.6056H8.54981C8.36296 28.6056 8.18376 28.6798 8.05163 28.8119C7.91951 28.944 7.84528 29.1232 7.84528 29.3101V39.715H4.50694V25.8662L43.0773 15.9349V26.3137C43.0773 26.4063 43.0955 26.4979 43.1309 26.5834C43.1663 26.6688 43.2182 26.7465 43.2836 26.8119C43.3491 26.8773 43.4267 26.9292 43.5122 26.9646C43.5977 27 43.6893 27.0183 43.7818 27.0183C43.8743 27.0183 43.9659 27 44.0514 26.9646C44.1369 26.9292 44.2146 26.8773 44.28 26.8119C44.3454 26.7465 44.3973 26.6688 44.4327 26.5834C44.4681 26.4979 44.4863 26.4063 44.4863 26.3137V15.026C44.4864 14.9185 44.4618 14.8124 44.4145 14.7159C44.3673 14.6193 44.2985 14.5349 44.2135 14.4691C44.1286 14.4032 44.0297 14.3577 43.9244 14.336C43.8191 14.3142 43.7103 14.3169 43.6062 14.3437L40.1609 15.2308L39.5059 7.96855L39.5058 7.9679L39.2034 4.61568C39.1876 4.4405 39.1069 4.27757 38.9771 4.15891C38.8472 4.04025 38.6777 3.97444 38.5018 3.97443H33.8505C33.6746 3.97444 33.5051 4.04025 33.3753 4.15891C33.2454 4.27757 33.1647 4.4405 33.1489 4.61568L32.8465 7.96808V7.96818L32.002 17.3316L27.9984 18.3625L27.2938 10.55V10.5496L26.9915 7.19727C26.9757 7.02209 26.8949 6.85916 26.7651 6.7405C26.6353 6.62184 26.4657 6.55603 26.2898 6.55602H21.6384C21.4625 6.55603 21.293 6.62184 21.1632 6.7405C21.0334 6.85916 20.9526 7.02209 20.9368 7.19727L20.6345 10.5495L20.6344 10.5501L19.7379 20.4896L15.8359 21.4943L15.0816 13.1316V13.1312L14.7792 9.77896C14.7634 9.60378 14.6827 9.44085 14.5528 9.32219C14.423 9.20353 14.2535 9.13772 14.0776 9.13771H9.42637C9.25049 9.13772 9.08097 9.20353 8.95113 9.32219C8.8213 9.44085 8.74055 9.60378 8.72475 9.77896L8.07694 16.9608C8.06104 17.1464 8.11931 17.3307 8.23899 17.4735C8.35868 17.6163 8.53003 17.7058 8.71557 17.7226C8.90111 17.7393 9.08573 17.6819 9.22904 17.5629C9.37235 17.4438 9.46269 17.2729 9.48028 17.0874L9.76706 13.908H13.7371L14.4534 21.8505L8.92228 23.2746L9.22697 19.897C9.24286 19.7114 9.1846 19.5271 9.06491 19.3843C8.94523 19.2415 8.77388 19.152 8.58834 19.1352C8.4028 19.1185 8.21817 19.1759 8.07486 19.2949C7.93155 19.414 7.84122 19.5849 7.82363 19.7704L7.47394 23.6475L3.62719 24.638C3.47586 24.6769 3.34179 24.7651 3.24605 24.8886C3.15032 25.0121 3.09836 25.1639 3.09834 25.3202V39.7151H2.15522C0.966844 39.715 0 40.6819 0 41.8702C0 43.0586 0.966844 44.0255 2.15522 44.0255H22.8517C22.9442 44.0255 23.0358 44.0072 23.1213 43.9718C23.2067 43.9364 23.2844 43.8845 23.3498 43.8191C23.4153 43.7537 23.4672 43.676 23.5026 43.5905C23.538 43.5051 23.5562 43.4134 23.5562 43.3209C23.5562 43.2284 23.538 43.1368 23.5026 43.0513C23.4672 42.9658 23.4153 42.8882 23.3498 42.8228C23.2844 42.7573 23.2067 42.7054 23.1213 42.67C23.0358 42.6346 22.9442 42.6164 22.8517 42.6164H2.15522C1.74375 42.6164 1.40897 42.2817 1.40897 41.8702C1.40897 41.4588 1.74366 41.124 2.15522 41.124H45.8448C46.2509 41.124 46.591 41.4641 46.591 41.8702C46.591 42.2764 46.2509 42.6164 45.8448 42.6164H25.6697C25.5772 42.6164 25.4856 42.6346 25.4001 42.67C25.3146 42.7054 25.2369 42.7573 25.1715 42.8228C25.1061 42.8882 25.0542 42.9658 25.0188 43.0513C24.9834 43.1368 24.9652 43.2284 24.9652 43.3209C24.9652 43.4134 24.9834 43.5051 25.0188 43.5905C25.0542 43.676 25.1061 43.7537 25.1715 43.8191C25.2369 43.8845 25.3146 43.9364 25.4001 43.9718C25.4856 44.0072 25.5772 44.0255 25.6697 44.0255H45.8448C47.0332 44.0255 48 43.0586 48 41.8702C48 40.6819 47.0332 39.715 45.8448 39.715ZM9.89381 12.4987L10.0699 10.5466H13.4336L13.6097 12.4987H9.89381ZM37.858 5.38349L38.0341 7.33565H34.3182L34.4943 5.38349H37.858ZM34.1912 8.74461H38.1612L38.7783 15.5868L33.4504 16.9586L34.1912 8.74461ZM25.6459 7.96499L25.8219 9.91715H22.106L22.282 7.96499H25.6459ZM21.9788 11.3262H25.949L26.6157 18.7185L21.1861 20.1166L21.9788 11.3262ZM9.25425 30.0146H17.1026V39.7151H9.25425V30.0146Z" fill="#0054AA"/>
<path d="M26.6765 25.3708C26.6765 25.1839 26.6022 25.0047 26.4701 24.8726C26.338 24.7405 26.1588 24.6663 25.9719 24.6663H23.1583C22.9715 24.6663 22.7923 24.7405 22.6601 24.8726C22.528 25.0047 22.4538 25.1839 22.4538 25.3708V28.8844C22.4538 29.0712 22.528 29.2504 22.6601 29.3825C22.7923 29.5147 22.9715 29.5889 23.1583 29.5889H25.9719C26.1588 29.5889 26.338 29.5147 26.4701 29.3825C26.6022 29.2504 26.6765 29.0712 26.6765 28.8844V25.3708ZM25.2675 28.1799H23.8629V26.0753H25.2675V28.1799ZM25.9719 31.858H23.1583C22.9715 31.858 22.7923 31.9322 22.6601 32.0644C22.528 32.1965 22.4538 32.3757 22.4538 32.5625V36.0761C22.4538 36.263 22.528 36.4422 22.6601 36.5743C22.7923 36.7064 22.9715 36.7806 23.1583 36.7806H25.9719C26.1588 36.7806 26.338 36.7064 26.4701 36.5743C26.6022 36.4422 26.6765 36.263 26.6765 36.0761V32.5625C26.6765 32.3757 26.6022 32.1965 26.4701 32.0644C26.338 31.9322 26.1588 31.858 25.9719 31.858ZM25.2675 35.3717H23.8629V33.2671H25.2675V35.3717ZM33.8084 25.3708C33.8084 25.1839 33.7342 25.0047 33.6021 24.8726C33.4699 24.7405 33.2907 24.6663 33.1039 24.6663H30.2902C30.1033 24.6663 29.9241 24.7405 29.792 24.8726C29.6599 25.0047 29.5856 25.1839 29.5856 25.3708V28.8844C29.5856 29.0712 29.6599 29.2504 29.792 29.3825C29.9241 29.5147 30.1033 29.5889 30.2902 29.5889H33.1039C33.2907 29.5889 33.4699 29.5147 33.6021 29.3825C33.7342 29.2504 33.8084 29.0712 33.8084 28.8844V25.3708ZM32.3994 28.1799H30.9948V26.0753H32.3994V28.1799ZM33.104 31.858H30.2903C30.1034 31.858 29.9242 31.9322 29.7921 32.0644C29.6599 32.1965 29.5857 32.3757 29.5857 32.5625V36.0761C29.5857 36.263 29.6599 36.4422 29.7921 36.5743C29.9242 36.7064 30.1034 36.7806 30.2903 36.7806H33.104C33.2908 36.7806 33.47 36.7064 33.6021 36.5743C33.7343 36.4422 33.8085 36.263 33.8085 36.0761V32.5625C33.8085 32.3757 33.7342 32.1965 33.6021 32.0644C33.47 31.9323 33.2908 31.858 33.104 31.858ZM32.3994 35.3717H30.9948V33.2671H32.3994V35.3717ZM40.9403 25.3708C40.9403 25.1839 40.8661 25.0047 40.734 24.8726C40.6019 24.7405 40.4227 24.6663 40.2358 24.6663H37.4222C37.2353 24.6663 37.0561 24.7405 36.924 24.8726C36.7919 25.0047 36.7177 25.1839 36.7177 25.3708V28.8844C36.7177 29.0712 36.7919 29.2504 36.924 29.3825C37.0561 29.5147 37.2353 29.5889 37.4222 29.5889H40.2358C40.4227 29.5889 40.6019 29.5147 40.734 29.3825C40.8661 29.2504 40.9403 29.0712 40.9403 28.8844V25.3708ZM39.5313 28.1799H38.1267V26.0753H39.5313V28.1799ZM40.2358 31.858H37.4222C37.2353 31.858 37.0561 31.9322 36.924 32.0644C36.7919 32.1965 36.7177 32.3757 36.7177 32.5625V36.0761C36.7177 36.263 36.7919 36.4422 36.924 36.5743C37.0561 36.7064 37.2353 36.7806 37.4222 36.7806H40.2358C40.4227 36.7806 40.6019 36.7064 40.734 36.5743C40.8661 36.4422 40.9403 36.263 40.9403 36.0761V32.5625C40.9403 32.3757 40.8661 32.1965 40.734 32.0644C40.6019 31.9322 40.4227 31.858 40.2358 31.858ZM39.5313 35.3717H38.1267V33.2671H39.5313V35.3717Z" fill="#0054AA"/>
</svg>
