<svg width="48" height="48" viewBox="0 0 48 48" fill="none" xmlns="http://www.w3.org/2000/svg">
<path d="M32.316 35.4503C31.6159 35.4503 31.2407 34.594 31.7083 34.0785C36.761 28.509 39.3087 21.465 39.2862 13.1338C35.4344 12.2523 32.6476 9.19875 32.3482 5.53845H15.6617C15.3624 9.20039 12.5736 12.2544 8.71941 13.1348C8.63121 21.7785 10.9607 28.8245 15.648 34.0837C15.7928 34.2461 15.8671 34.4595 15.8546 34.6767C15.8421 34.894 15.7438 35.0974 15.5814 35.2421C15.4189 35.3869 15.2055 35.4612 14.9882 35.4487C14.7709 35.4362 14.5675 35.3379 14.4227 35.1755C12.1622 32.6392 10.3935 29.655 9.16546 26.3056C7.66485 22.2124 6.96649 17.5458 7.08997 12.4355C7.09462 12.2432 7.16664 12.0587 7.29346 11.9142C7.42027 11.7696 7.59383 11.6742 7.78382 11.6446C11.4277 11.0736 14.0618 8.21793 14.047 4.85445C14.0447 4.36245 14.3225 3.89752 14.867 3.89752H33.1427C33.6808 3.89752 33.978 4.36316 33.9627 4.85516C33.9481 8.21845 36.5824 11.0739 40.2264 11.6447C40.417 11.6745 40.5911 11.7706 40.7179 11.916C40.8448 12.0615 40.9163 12.2469 40.9199 12.4399C41.0136 17.4058 40.219 22.0246 38.5581 26.1678C37.2223 29.5 35.3267 32.5326 32.9239 35.1812C32.8471 35.2661 32.7532 35.3339 32.6485 35.3803C32.5438 35.4266 32.4305 35.4505 32.316 35.4503Z" fill="#0054AA"/>
<path d="M24.0017 32.0476C18.911 32.0476 14.7693 27.9144 14.7693 22.8342C14.7693 17.754 18.911 13.6209 24.0017 13.6209C29.0923 13.6209 33.234 17.754 33.234 22.8342C33.234 27.9144 29.0923 32.0476 24.0017 32.0476ZM24.0017 15.2619C19.816 15.2619 16.4107 18.6589 16.4107 22.8342C16.4107 27.0096 19.816 30.4066 24.0017 30.4066C28.1873 30.4066 31.5926 27.0096 31.5926 22.8342C31.5926 18.6589 28.1874 15.2619 24.0017 15.2619Z" fill="#0054AA"/>
<path d="M21.83 25.9171L19.6727 23.3545C19.3808 23.0079 19.4253 22.4902 19.7721 22.1985C20.1189 21.9069 20.6366 21.9513 20.9284 22.2979L22.4948 24.1586L27.5446 18.8426C27.6946 18.6849 27.901 18.5932 28.1185 18.5876C28.3361 18.582 28.547 18.663 28.7048 18.8128C28.783 18.887 28.8457 18.9759 28.8895 19.0744C28.9333 19.1728 28.9573 19.2789 28.96 19.3867C28.9628 19.4944 28.9443 19.6016 28.9057 19.7022C28.867 19.8028 28.8089 19.8948 28.7347 19.9729L23.0528 25.954C22.7194 26.282 22.2065 26.3077 21.83 25.9171ZM44.1344 39.4114L47.823 34.8332C48.2517 34.301 47.8488 33.5384 47.1839 33.5384H38.1281C37.6992 33.5384 37.3075 33.859 37.3075 34.3059L37.3077 37.2308H10.7015L10.6937 34.3137C10.6925 33.8615 10.3255 33.5384 9.87313 33.5384H0.81733C0.147894 33.5384 -0.251286 34.3102 0.178253 34.8434L3.86677 39.4164L0.178253 43.9921C-0.245747 44.5183 0.14133 45.3333 0.81733 45.3333H9.12871V47.1795C9.12871 47.6326 9.44666 48 9.89989 48H38.1292C38.5825 48 38.9749 47.6326 38.9749 47.1795V45.3333H47.1837C47.8595 45.3333 48.2462 44.5173 47.8228 43.9917L44.1344 39.4114ZM2.5321 43.6923L5.55959 39.9303C5.80164 39.6298 5.80164 39.2195 5.55959 38.919L2.5322 35.1795H9.05456L9.07712 43.6923H2.5321ZM37.336 46.359H10.7697V38.8718H37.3079L37.336 46.359ZM38.9773 43.6923L38.9488 35.1795H45.469L42.4415 38.9168C42.3241 39.0615 42.26 39.2422 42.26 39.4286C42.26 39.615 42.3241 39.7957 42.4415 39.9404L45.4689 43.6923H38.9773ZM43.6971 2.87824C43.5894 2.87825 43.4827 2.85704 43.3831 2.81581C43.2835 2.77458 43.1931 2.71414 43.1169 2.63795C43.0407 2.56176 42.9802 2.4713 42.939 2.37174C42.8977 2.27219 42.8765 2.16548 42.8765 2.05772V0.820493C42.8765 0.602853 42.963 0.394126 43.1169 0.240231C43.2708 0.0863354 43.4795 -0.00012207 43.6971 -0.00012207C43.9148 -0.00012207 44.1235 0.0863354 44.2774 0.240231C44.4313 0.394126 44.5177 0.602853 44.5177 0.820493V2.05772C44.5177 2.51075 44.1504 2.87824 43.6971 2.87824ZM43.6971 8.21854C43.5894 8.21856 43.4827 8.19734 43.3831 8.15612C43.2835 8.11489 43.1931 8.05445 43.1169 7.97826C43.0407 7.90207 42.9802 7.81161 42.939 7.71205C42.8977 7.6125 42.8765 7.50579 42.8765 7.39803V6.1607C42.8765 5.94306 42.963 5.73433 43.1169 5.58044C43.2708 5.42654 43.4795 5.34008 43.6971 5.34008C43.9148 5.34008 44.1235 5.42654 44.2774 5.58044C44.4313 5.73433 44.5177 5.94306 44.5177 6.1607V7.39793C44.5178 7.5057 44.4965 7.61241 44.4553 7.71198C44.4141 7.81155 44.3536 7.90202 44.2774 7.97822C44.2012 8.05443 44.1107 8.11487 44.0112 8.15611C43.9116 8.19734 43.8049 8.21856 43.6971 8.21854ZM46.9825 4.92972H45.7466C45.5289 4.92972 45.3202 4.84328 45.1664 4.6894C45.0125 4.53553 44.9261 4.32682 44.9261 4.10921C44.9261 3.8916 45.0125 3.6829 45.1664 3.52902C45.3202 3.37515 45.5289 3.2887 45.7466 3.2887H46.9825C47.2001 3.2887 47.4088 3.37515 47.5627 3.52902C47.7165 3.6829 47.803 3.8916 47.803 4.10921C47.803 4.32682 47.7165 4.53553 47.5627 4.6894C47.4088 4.84328 47.2001 4.92972 46.9825 4.92972ZM41.6477 4.92972H40.4118C40.1942 4.92972 39.9855 4.84328 39.8316 4.6894C39.6777 4.53553 39.5913 4.32682 39.5913 4.10921C39.5913 3.8916 39.6777 3.6829 39.8316 3.52902C39.9855 3.37515 40.1942 3.2887 40.4118 3.2887H41.6477C41.8653 3.2887 42.074 3.37515 42.2279 3.52902C42.3818 3.6829 42.4682 3.8916 42.4682 4.10921C42.4682 4.32682 42.3818 4.53553 42.2279 4.6894C42.074 4.84328 41.8653 4.92972 41.6477 4.92972ZM4.51138 2.87824C4.40362 2.87825 4.29691 2.85704 4.19735 2.81581C4.09779 2.77458 4.00733 2.71414 3.93112 2.63795C3.85492 2.56176 3.79447 2.4713 3.75323 2.37174C3.71199 2.27219 3.69077 2.16548 3.69077 2.05772V0.820493C3.69077 0.367365 4.05815 -1.95062e-05 4.51138 -1.95062e-05C4.61914 -3.29762e-05 4.72585 0.0211803 4.82541 0.0624089C4.92497 0.103637 5.01544 0.164074 5.09164 0.240267C5.16784 0.31646 5.22829 0.406917 5.26953 0.506473C5.31077 0.606029 5.332 0.712733 5.332 0.820493V2.05772C5.332 2.51075 4.96461 2.87824 4.51138 2.87824ZM4.51138 8.21854C4.40362 8.21856 4.29691 8.19734 4.19735 8.15612C4.09779 8.11489 4.00733 8.05445 3.93112 7.97826C3.85492 7.90207 3.79447 7.81161 3.75323 7.71205C3.71199 7.6125 3.69077 7.50579 3.69077 7.39803V6.1607C3.69077 5.70757 4.05815 5.34019 4.51138 5.34019C4.61914 5.34017 4.72585 5.36139 4.82541 5.40261C4.92497 5.44384 5.01544 5.50428 5.09164 5.58047C5.16784 5.65667 5.22829 5.74712 5.26953 5.84668C5.31077 5.94623 5.332 6.05294 5.332 6.1607V7.39793C5.33201 7.5057 5.31079 7.61241 5.26956 7.71198C5.22832 7.81155 5.16788 7.90202 5.09167 7.97822C5.01547 8.05443 4.925 8.11487 4.82543 8.15611C4.72586 8.19734 4.61915 8.21856 4.51138 8.21854ZM7.79671 4.92972H6.56082C6.3432 4.92972 6.1345 4.84328 5.98063 4.6894C5.82675 4.53553 5.7403 4.32682 5.7403 4.10921C5.7403 3.8916 5.82675 3.6829 5.98063 3.52902C6.1345 3.37515 6.3432 3.2887 6.56082 3.2887H7.79671C8.01433 3.2887 8.22303 3.37515 8.3769 3.52902C8.53078 3.6829 8.61723 3.8916 8.61723 4.10921C8.61723 4.32682 8.53078 4.53553 8.3769 4.6894C8.22303 4.84328 8.01433 4.92972 7.79671 4.92972ZM2.46195 4.92972H1.22605C1.00843 4.92972 0.799733 4.84328 0.645857 4.6894C0.491981 4.53553 0.405535 4.32682 0.405535 4.10921C0.405535 3.8916 0.491981 3.6829 0.645857 3.52902C0.799733 3.37515 1.00843 3.2887 1.22605 3.2887H2.46195C2.67956 3.2887 2.88826 3.37515 3.04214 3.52902C3.19601 3.6829 3.28246 3.8916 3.28246 4.10921C3.28246 4.32682 3.19601 4.53553 3.04214 4.6894C2.88826 4.84328 2.67956 4.92972 2.46195 4.92972Z" fill="#0054AA"/>
</svg>
