<svg width="21" height="20" viewBox="0 0 21 20" fill="none" xmlns="http://www.w3.org/2000/svg">
<path d="M4.78571 8.02145C4.78571 7.83458 4.86097 7.65535 4.99492 7.52321C5.12888 7.39107 5.31056 7.31683 5.5 7.31683H9.78571C9.97515 7.31683 10.1568 7.39107 10.2908 7.52321C10.4247 7.65535 10.5 7.83458 10.5 8.02145C10.5 8.20833 10.4247 8.38755 10.2908 8.5197C10.1568 8.65184 9.97515 8.72608 9.78571 8.72608H5.5C5.31056 8.72608 5.12888 8.65184 4.99492 8.5197C4.86097 8.38755 4.78571 8.20833 4.78571 8.02145ZM9.78571 10.1353H5.5C5.31056 10.1353 5.12888 10.2096 4.99492 10.3417C4.86097 10.4738 4.78571 10.6531 4.78571 10.8399C4.78571 11.0268 4.86097 11.206 4.99492 11.3382C5.12888 11.4703 5.31056 11.5446 5.5 11.5446H9.78571C9.97515 11.5446 10.1568 11.4703 10.2908 11.3382C10.4247 11.206 10.5 11.0268 10.5 10.8399C10.5 10.6531 10.4247 10.4738 10.2908 10.3417C10.1568 10.2096 9.97515 10.1353 9.78571 10.1353ZM9.78571 12.9538H5.5C5.31056 12.9538 5.12888 13.028 4.99492 13.1602C4.86097 13.2923 4.78571 13.4715 4.78571 13.6584C4.78571 13.8453 4.86097 14.0245 4.99492 14.1567C5.12888 14.2888 5.31056 14.363 5.5 14.363H9.78571C9.97515 14.363 10.1568 14.2888 10.2908 14.1567C10.4247 14.0245 10.5 13.8453 10.5 13.6584C10.5 13.4715 10.4247 13.2923 10.2908 13.1602C10.1568 13.028 9.97515 12.9538 9.78571 12.9538ZM9.78571 15.7723H5.5C5.31056 15.7723 5.12888 15.8465 4.99492 15.9787C4.86097 16.1108 4.78571 16.29 4.78571 16.4769C4.78571 16.6638 4.86097 16.843 4.99492 16.9751C5.12888 17.1073 5.31056 17.1815 5.5 17.1815H9.78571C9.97515 17.1815 10.1568 17.1073 10.2908 16.9751C10.4247 16.843 10.5 16.6638 10.5 16.4769C10.5 16.29 10.4247 16.1108 10.2908 15.9787C10.1568 15.8465 9.97515 15.7723 9.78571 15.7723ZM20.5 19.2954C20.5 19.4823 20.4247 19.6615 20.2908 19.7936C20.1568 19.9258 19.9752 20 19.7857 20H1.21429C1.02485 20 0.843164 19.9258 0.709209 19.7936C0.575255 19.6615 0.5 19.4823 0.5 19.2954C0.5 19.1085 0.575255 18.9293 0.709209 18.7971C0.843164 18.665 1.02485 18.5908 1.21429 18.5908H1.92857V5.63843C1.92769 5.37657 2.00116 5.1197 2.14065 4.89691C2.28015 4.67412 2.4801 4.49432 2.71786 4.37786L11.2893 0.15014C11.7364 -0.0697014 12.255 -0.0471536 12.6793 0.211442C13.1036 0.470038 13.3564 0.918176 13.3564 1.41071V6.61221H17.6421C18.43 6.61221 19.0707 7.24426 19.0707 8.02145V18.5908H19.785C19.9744 18.5908 20.1561 18.665 20.2901 18.7971C20.424 18.9293 20.5 19.1085 20.5 19.2954ZM13.3571 8.02145V18.5908H17.6429V8.02145H13.3571ZM3.35714 18.5908H11.9286V1.41071L3.35714 5.63843V18.5908Z" fill="white"/>
</svg>
