<svg width="24" height="24" viewBox="0 0 24 24" fill="none" xmlns="http://www.w3.org/2000/svg">
<path d="M4 5.6C4 5.103 4 4.85449 4.0812 4.65847C4.18946 4.39711 4.39711 4.18946 4.65847 4.0812C4.85449 4 5.103 4 5.6 4C6.097 4 6.34551 4 6.54153 4.0812C6.80289 4.18946 7.01055 4.39711 7.11881 4.65847C7.2 4.85449 7.2 5.103 7.2 5.6C7.2 6.097 7.2 6.34551 7.11881 6.54153C7.01055 6.80289 6.80289 7.01055 6.54153 7.11881C6.34551 7.2 6.097 7.2 5.6 7.2C5.103 7.2 4.85449 7.2 4.65847 7.11881C4.39711 7.01055 4.18946 6.80289 4.0812 6.54153C4 6.34551 4 6.097 4 5.6Z" fill="white"/>
<path d="M4 12C4 11.503 4 11.2545 4.0812 11.0585C4.18946 10.7971 4.39711 10.5895 4.65847 10.4812C4.85449 10.4 5.103 10.4 5.6 10.4C6.097 10.4 6.34551 10.4 6.54153 10.4812C6.80289 10.5895 7.01055 10.7971 7.11881 11.0585C7.2 11.2545 7.2 11.503 7.2 12C7.2 12.497 7.2 12.7455 7.11881 12.9415C7.01055 13.2029 6.80289 13.4105 6.54153 13.5188C6.34551 13.6 6.097 13.6 5.6 13.6C5.103 13.6 4.85449 13.6 4.65847 13.5188C4.39711 13.4105 4.18946 13.2029 4.0812 12.9415C4 12.7455 4 12.497 4 12Z" fill="white"/>
<path d="M4 18.4C4 17.903 4 17.6545 4.0812 17.4585C4.18946 17.1971 4.39711 16.9895 4.65847 16.8812C4.85449 16.8 5.103 16.8 5.6 16.8C6.097 16.8 6.34551 16.8 6.54153 16.8812C6.80289 16.9895 7.01055 17.1971 7.11881 17.4585C7.2 17.6545 7.2 17.903 7.2 18.4C7.2 18.897 7.2 19.1455 7.11881 19.3415C7.01055 19.6029 6.80289 19.8105 6.54153 19.9188C6.34551 20 6.097 20 5.6 20C5.103 20 4.85449 20 4.65847 19.9188C4.39711 19.8105 4.18946 19.6029 4.0812 19.3415C4 19.1455 4 18.897 4 18.4Z" fill="white"/>
<path d="M10.4 5.6C10.4 5.103 10.4 4.85449 10.4812 4.65847C10.5895 4.39711 10.7971 4.18946 11.0585 4.0812C11.2545 4 11.503 4 12 4C12.497 4 12.7455 4 12.9415 4.0812C13.2029 4.18946 13.4105 4.39711 13.5188 4.65847C13.6 4.85449 13.6 5.103 13.6 5.6C13.6 6.097 13.6 6.34551 13.5188 6.54153C13.4105 6.80289 13.2029 7.01055 12.9415 7.11881C12.7455 7.2 12.497 7.2 12 7.2C11.503 7.2 11.2545 7.2 11.0585 7.11881C10.7971 7.01055 10.5895 6.80289 10.4812 6.54153C10.4 6.34551 10.4 6.097 10.4 5.6Z" fill="white"/>
<path d="M10.4 18.4C10.4 17.903 10.4 17.6545 10.4812 17.4585C10.5895 17.1971 10.7971 16.9895 11.0585 16.8812C11.2545 16.8 11.503 16.8 12 16.8C12.497 16.8 12.7455 16.8 12.9415 16.8812C13.2029 16.9895 13.4105 17.1971 13.5188 17.4585C13.6 17.6545 13.6 17.903 13.6 18.4C13.6 18.897 13.6 19.1455 13.5188 19.3415C13.4105 19.6029 13.2029 19.8105 12.9415 19.9188C12.7455 20 12.497 20 12 20C11.503 20 11.2545 20 11.0585 19.9188C10.7971 19.8105 10.5895 19.6029 10.4812 19.3415C10.4 19.1455 10.4 18.897 10.4 18.4Z" fill="white"/>
<path d="M16.8 5.6C16.8 5.103 16.8 4.85449 16.8812 4.65847C16.9895 4.39711 17.1971 4.18946 17.4585 4.0812C17.6545 4 17.903 4 18.4 4C18.897 4 19.1455 4 19.3415 4.0812C19.6029 4.18946 19.8105 4.39711 19.9188 4.65847C20 4.85449 20 5.103 20 5.6C20 6.097 20 6.34551 19.9188 6.54153C19.8105 6.80289 19.6029 7.01055 19.3415 7.11881C19.1455 7.2 18.897 7.2 18.4 7.2C17.903 7.2 17.6545 7.2 17.4585 7.11881C17.1971 7.01055 16.9895 6.80289 16.8812 6.54153C16.8 6.34551 16.8 6.097 16.8 5.6Z" fill="white"/>
<path d="M16.8 12C16.8 11.503 16.8 11.2545 16.8812 11.0585C16.9895 10.7971 17.1971 10.5895 17.4585 10.4812C17.6545 10.4 17.903 10.4 18.4 10.4C18.897 10.4 19.1455 10.4 19.3415 10.4812C19.6029 10.5895 19.8105 10.7971 19.9188 11.0585C20 11.2545 20 11.503 20 12C20 12.497 20 12.7455 19.9188 12.9415C19.8105 13.2029 19.6029 13.4105 19.3415 13.5188C19.1455 13.6 18.897 13.6 18.4 13.6C17.903 13.6 17.6545 13.6 17.4585 13.5188C17.1971 13.4105 16.9895 13.2029 16.8812 12.9415C16.8 12.7455 16.8 12.497 16.8 12Z" fill="white"/>
<path d="M16.8 18.4C16.8 17.903 16.8 17.6545 16.8812 17.4585C16.9895 17.1971 17.1971 16.9895 17.4585 16.8812C17.6545 16.8 17.903 16.8 18.4 16.8C18.897 16.8 19.1455 16.8 19.3415 16.8812C19.6029 16.9895 19.8105 17.1971 19.9188 17.4585C20 17.6545 20 17.903 20 18.4C20 18.897 20 19.1455 19.9188 19.3415C19.8105 19.6029 19.6029 19.8105 19.3415 19.9188C19.1455 20 18.897 20 18.4 20C17.903 20 17.6545 20 17.4585 19.9188C17.1971 19.8105 16.9895 19.6029 16.8812 19.3415C16.8 19.1455 16.8 18.897 16.8 18.4Z" fill="white"/>
<path d="M10.4 11.9999C10.4 11.5029 10.4 11.2544 10.4812 11.0584C10.5894 10.797 10.7971 10.5894 11.0585 10.4811C11.2545 10.3999 11.503 10.3999 12 10.3999C12.497 10.3999 12.7455 10.3999 12.9415 10.4811C13.2029 10.5894 13.4105 10.797 13.5188 11.0584C13.6 11.2544 13.6 11.5029 13.6 11.9999C13.6 12.4969 13.6 12.7454 13.5188 12.9414C13.4105 13.2028 13.2029 13.4104 12.9415 13.5187C12.7455 13.5999 12.497 13.5999 12 13.5999C11.503 13.5999 11.2545 13.5999 11.0585 13.5187C10.7971 13.4104 10.5894 13.2028 10.4812 12.9414C10.4 12.7454 10.4 12.4969 10.4 11.9999Z" fill="#05ADFF"/>
</svg>
