<svg width="30" height="24" viewBox="0 0 30 24" fill="none" xmlns="http://www.w3.org/2000/svg">
<path fill-rule="evenodd" clip-rule="evenodd" d="M18.6482 1.01565C18.6482 0.655492 18.9482 0.363525 19.3182 0.363525H24.4999C24.8699 0.363525 25.1699 0.655492 25.1699 1.01565V8.87797L28.6533 7.68591C28.8583 7.61577 29.0855 7.64674 29.2628 7.769C29.4401 7.89127 29.5455 8.08963 29.5455 8.30113V22.9841C29.5455 23.3443 29.2455 23.6363 28.8755 23.6363H1.12455C0.754542 23.6363 0.45459 23.3443 0.45459 22.9841V13.3449C0.45459 13.0779 0.621826 12.8378 0.876684 12.7391L4.83026 11.2065V1.01568C4.83026 0.655521 5.13021 0.363554 5.50022 0.363554H10.6819C11.052 0.363554 11.3519 0.655521 11.3519 1.01568V8.67855L13.8886 7.69528C14.0949 7.61528 14.3286 7.64005 14.5124 7.7614C14.6963 7.88276 14.8064 8.08491 14.8064 8.30113V12.4244L18.6482 11.1097V1.01565ZM19.9881 5.03025V10.6512L23.8299 9.3365V5.03025H19.9881ZM23.8299 3.726H19.9881V1.66778H23.8299V3.726ZM24.7096 10.418L19.5538 12.1823C19.545 12.1855 19.536 12.1886 19.5269 12.1915L14.3586 13.9601C14.1536 14.0303 13.9264 13.9993 13.7491 13.877C13.5718 13.7548 13.4665 13.5564 13.4665 13.3449V9.26276L10.9424 10.2411C10.934 10.2446 10.9255 10.2479 10.9168 10.2511L5.76136 12.2495C5.75249 12.2531 5.74353 12.2566 5.73447 12.2599L1.79451 13.7871V22.332H5.69388V19.6216C5.69388 19.2614 5.99384 18.9695 6.36385 18.9695H9.81833C10.1883 18.9695 10.4883 19.2614 10.4883 19.6216V22.332H12.6029V19.6216C12.6029 19.2614 12.9028 18.9695 13.2728 18.9695H16.7273C17.0973 18.9695 17.3973 19.2614 17.3973 19.6216V22.332H19.5118V19.6216C19.5118 19.2614 19.8118 18.9695 20.1818 18.9695H23.6363C24.0063 18.9695 24.3062 19.2614 24.3062 19.6216V22.332H28.2056V9.22165L24.7347 10.4094C24.7264 10.4124 24.718 10.4153 24.7096 10.418ZM22.9663 22.332V20.2737H20.8518V22.332H22.9663ZM16.0573 22.332V20.2737H13.9428V22.332H16.0573ZM9.14836 22.332V20.2737H7.03381V22.332H9.14836ZM6.17019 10.6871L10.012 9.19795V5.03025H6.17019V10.6871ZM6.17019 3.726H10.012V1.66781H6.17019V3.726Z" fill="white"/>
</svg>