<svg width="40" height="32" viewBox="0 0 40 32" fill="none" xmlns="http://www.w3.org/2000/svg">
<path fill-rule="evenodd" clip-rule="evenodd" d="M25.0162 0.896674C25.0162 0.401455 25.4287 0 25.9374 0H33.0623C33.5711 0 33.9835 0.401455 33.9835 0.896674V11.7074L38.7733 10.0683C39.0551 9.97183 39.3675 10.0144 39.6113 10.1825C39.8551 10.3506 40 10.6234 40 10.9142V31.1033C40 31.5985 39.5876 32 39.0788 32H0.921197C0.412434 32 0 31.5985 0 31.1033V17.8494C0 17.4822 0.229949 17.1522 0.580379 17.0163L6.01655 14.9091V0.896714C6.01655 0.401494 6.42898 3.96569e-05 6.93775 3.96569e-05H14.0626C14.5714 3.96569e-05 14.9838 0.401494 14.9838 0.896714V11.4332L18.4717 10.0812C18.7555 9.97116 19.0768 10.0052 19.3296 10.1721C19.5823 10.3389 19.7337 10.6169 19.7337 10.9142V16.5837L25.0162 14.776V0.896674ZM26.8586 6.41675V14.1455L32.1411 12.3378V6.41675H26.8586ZM32.1411 4.6234H26.8586V1.79335H32.1411V4.6234ZM33.3506 13.8249L26.2615 16.2508C26.2493 16.2553 26.2369 16.2595 26.2245 16.2635L19.118 18.6953C18.8362 18.7918 18.5238 18.7492 18.28 18.5811C18.0362 18.413 17.8913 18.1402 17.8913 17.8494V12.2364L14.4208 13.5817C14.4092 13.5865 14.3974 13.591 14.3856 13.5954L7.29681 16.3432C7.28462 16.3482 7.27229 16.353 7.25983 16.3575L1.84239 18.4575V30.2067H7.20403V26.4799C7.20403 25.9846 7.61646 25.5832 8.12523 25.5832H12.8751C13.3839 25.5832 13.7963 25.9846 13.7963 26.4799V30.2067H16.7039V26.4799C16.7039 25.9846 17.1163 25.5832 17.6251 25.5832H22.375C22.8837 25.5832 23.2962 25.9846 23.2962 26.4799V30.2067H26.2037V26.4799C26.2037 25.9846 26.6162 25.5832 27.1249 25.5832H31.8748C32.3836 25.5832 32.796 25.9846 32.796 26.4799V30.2067H38.1576V12.1799L33.3851 13.8131C33.3737 13.8172 33.3622 13.8212 33.3506 13.8249ZM30.9536 30.2067V27.3765H28.0461V30.2067H30.9536ZM21.4538 30.2067V27.3765H18.5463V30.2067H21.4538ZM11.9539 30.2067V27.3765H9.04642V30.2067H11.9539ZM7.85894 14.195L13.1414 12.1473V6.41675H7.85894V14.195ZM7.85894 4.6234H13.1414V1.79339H7.85894V4.6234Z" fill="white"/>
</svg>
