<svg width="28" height="28" viewBox="0 0 28 28" fill="none" xmlns="http://www.w3.org/2000/svg">
<path d="M14 16.8711C15.5857 16.8711 16.8711 15.5857 16.8711 14C16.8711 12.4143 15.5857 11.1289 14 11.1289C12.4143 11.1289 11.1289 12.4143 11.1289 14C11.1289 15.5857 12.4143 16.8711 14 16.8711Z" fill="#05ADFF"/>
<path d="M14 0.328125C6.44924 0.328125 0.328125 6.44924 0.328125 14C0.328125 21.5508 6.44924 27.6719 14 27.6719C21.5508 27.6719 27.6719 21.5508 27.6719 14C27.6719 6.44924 21.5508 0.328125 14 0.328125ZM22.4469 17.4748C22.3813 18.7747 22.016 20.0564 21.0688 20.9936C20.1124 21.9397 18.8245 22.2922 17.5122 22.3572H10.4879C9.17536 22.2922 7.88769 21.9399 6.93126 20.9936C5.98396 20.0564 5.61876 18.7747 5.55313 17.4748V10.5252C5.61876 9.22534 5.98402 7.94358 6.93126 7.00634C7.88769 6.06025 9.17552 5.70773 10.4879 5.64282H17.5121C18.8246 5.70773 20.1123 6.06009 21.0687 7.00634C22.016 7.94358 22.3812 9.22534 22.4469 10.5252L22.4469 17.4748Z" fill="#05ADFF"/>
<path d="M17.4234 7.2263C15.7125 7.17938 12.288 7.17938 10.577 7.2263C9.68663 7.25074 8.67727 7.47239 8.04289 8.14997C7.38369 8.85429 7.13459 9.70523 7.10932 10.6572C7.06491 12.328 7.10932 17.3428 7.10932 17.3428C7.13825 18.2947 7.38369 19.1457 8.04289 19.85C8.67727 20.5278 9.68663 20.7493 10.577 20.7737C12.288 20.8206 15.7125 20.8206 17.4234 20.7737C18.3138 20.7493 19.3232 20.5276 19.9575 19.85C20.6167 19.1457 20.8659 18.2948 20.8911 17.3428V10.6572C20.8659 9.70523 20.6167 8.85429 19.9575 8.14997C19.323 7.47217 18.3136 7.25074 17.4234 7.2263ZM14 18.4502C13.1198 18.4502 12.2594 18.1892 11.5276 17.7002C10.7958 17.2112 10.2254 16.5162 9.88856 15.703C9.55173 14.8898 9.4636 13.9951 9.63531 13.1318C9.80703 12.2686 10.2309 11.4756 10.8532 10.8532C11.4756 10.2309 12.2686 9.80703 13.1318 9.63531C13.9951 9.4636 14.8898 9.55173 15.703 9.88856C16.5162 10.2254 17.2112 10.7958 17.7002 11.5276C18.1892 12.2594 18.4502 13.1198 18.4502 14C18.4502 15.1803 17.9813 16.3122 17.1468 17.1468C16.3122 17.9813 15.1803 18.4502 14 18.4502ZM18.4691 10.4684C18.2931 10.4683 18.121 10.4161 17.9747 10.3183C17.8284 10.2205 17.7143 10.0814 17.647 9.9188C17.5797 9.75617 17.5621 9.57722 17.5964 9.40458C17.6308 9.23194 17.7156 9.07337 17.8401 8.94892C17.9645 8.82447 18.1231 8.73972 18.2958 8.7054C18.4684 8.67107 18.6474 8.68871 18.81 8.75608C18.9726 8.82345 19.1116 8.93753 19.2094 9.0839C19.3072 9.23026 19.3594 9.40233 19.3594 9.57835C19.3594 9.69525 19.3363 9.81101 19.2916 9.91901C19.2469 10.027 19.1813 10.1251 19.0986 10.2078C19.0159 10.2904 18.9178 10.356 18.8098 10.4007C18.7018 10.4454 18.586 10.4684 18.4691 10.4684Z" fill="#05ADFF"/>
</svg>
