<svg width="24" height="24" viewBox="0 0 24 24" fill="none" xmlns="http://www.w3.org/2000/svg">
<path fill-rule="evenodd" clip-rule="evenodd" d="M2 5C2 4.44772 2.40701 4 2.90909 4H21.0909C21.593 4 22 4.44772 22 5C22 5.55228 21.593 6 21.0909 6H2.90909C2.40701 6 2 5.55228 2 5Z" fill="#0054AA"/>
<path fill-rule="evenodd" clip-rule="evenodd" d="M2 19C2 18.4477 2.40701 18 2.90909 18H21.0909C21.593 18 22 18.4477 22 19C22 19.5523 21.593 20 21.0909 20H2.90909C2.40701 20 2 19.5523 2 19Z" fill="#0054AA"/>
<path fill-rule="evenodd" clip-rule="evenodd" d="M6 12C6 11.4477 6.33579 11 6.75 11L17.25 11C17.6642 11 18 11.4477 18 12C18 12.5523 17.6642 13 17.25 13L6.75 13C6.33579 13 6 12.5523 6 12Z" fill="#05ADFF"/>
</svg>
