<svg width="24" height="24" viewBox="0 0 24 24" fill="none" xmlns="http://www.w3.org/2000/svg">
<path d="M21.2429 15.9735C21.7266 16.4585 21.9983 17.1156 21.9983 17.8006C21.9983 18.4856 21.7266 19.1427 21.2429 19.6278L20.4834 20.5034C13.6472 27.0483 -2.98819 10.4168 3.45564 3.55889L4.41554 2.72419C4.90113 2.25398 5.55233 1.99386 6.22824 2.00011C6.90415 2.00636 7.55043 2.27847 8.02725 2.75758C8.05313 2.78345 9.59981 4.79258 9.59981 4.79258C10.0587 5.27473 10.3142 5.9152 10.3131 6.58086C10.3121 7.24651 10.0545 7.88614 9.59397 8.36679L8.62739 9.58212C9.1623 10.8818 9.94876 12.0631 10.9416 13.0579C11.9344 14.0527 13.114 14.8416 14.4126 15.3791L15.6355 14.4067C16.1162 13.9466 16.7557 13.6893 17.4211 13.6883C18.0866 13.6874 18.7268 13.9429 19.2088 14.4017C19.2088 14.4017 21.2171 15.9476 21.2429 15.9735ZM20.0944 17.1871C20.0944 17.1871 18.097 15.6504 18.0711 15.6245C17.8991 15.454 17.6668 15.3584 17.4246 15.3584C17.1825 15.3584 16.9501 15.454 16.7782 15.6245C16.7556 15.6479 15.0721 16.9893 15.0721 16.9893C14.9586 17.0796 14.8236 17.1388 14.6803 17.161C14.537 17.1833 14.3904 17.1678 14.2549 17.1162C12.5725 16.4898 11.0444 15.5091 9.77412 14.2407C8.5038 12.9722 7.52093 11.4455 6.89207 9.76408C6.83631 9.62674 6.81813 9.47702 6.8394 9.33032C6.86067 9.18362 6.92063 9.04523 7.0131 8.92938C7.0131 8.92938 8.35445 7.24495 8.37699 7.22324C8.54749 7.05128 8.64315 6.81893 8.64315 6.57677C8.64315 6.3346 8.54749 6.10225 8.37699 5.93029C8.35111 5.90525 6.81444 3.90613 6.81444 3.90613C6.63991 3.74963 6.41212 3.66581 6.17778 3.67187C5.94343 3.67792 5.72028 3.77338 5.55406 3.93868L4.59416 4.77339C-0.115175 10.436 14.3008 24.0526 19.263 19.3632L20.0234 18.4867C20.2016 18.3217 20.3087 18.0938 20.3219 17.8513C20.3351 17.6088 20.2536 17.3706 20.0944 17.1871Z" fill="#0054AA"/>
<path d="M13.2663 1.26627C13.0958 1.43675 13 1.66798 13 1.90909C13 2.1502 13.0958 2.38143 13.2663 2.55192C13.4368 2.7224 13.668 2.81818 13.9091 2.81818C15.8373 2.82035 17.6859 3.58727 19.0493 4.95071C20.4127 6.31414 21.1797 8.16273 21.1818 10.0909C21.1818 10.332 21.2776 10.5632 21.4481 10.7337C21.6186 10.9042 21.8498 11 22.0909 11C22.332 11 22.5632 10.9042 22.7337 10.7337C22.9042 10.5632 23 10.332 23 10.0909C22.9974 7.68066 22.0387 5.36989 20.3344 3.66559C18.6301 1.96129 16.3193 1.00265 13.9091 1C13.668 1 13.4368 1.09578 13.2663 1.26627Z" fill="#0054AA"/>
<path d="M16.2815 7.71849C15.6385 7.07551 14.7665 6.71429 13.8571 6.71429C13.6298 6.71429 13.4118 6.62398 13.2511 6.46323C13.0903 6.30249 13 6.08447 13 5.85714C13 5.62981 13.0903 5.4118 13.2511 5.25105C13.4118 5.09031 13.6298 5 13.8571 5C15.2207 5.00136 16.528 5.54363 17.4922 6.50781C18.4564 7.47199 18.9986 8.7793 19 10.1429C19 10.3702 18.9097 10.5882 18.749 10.7489C18.5882 10.9097 18.3702 11 18.1429 11C17.9155 11 17.6975 10.9097 17.5368 10.7489C17.376 10.5882 17.2857 10.3702 17.2857 10.1429C17.2857 9.23354 16.9245 8.36147 16.2815 7.71849Z" fill="#05ADFF"/>
</svg>
