<svg width="28" height="28" viewBox="0 0 28 28" fill="none" xmlns="http://www.w3.org/2000/svg">
<path d="M22.5305 8.2947L17.9679 7.63564L15.9274 3.52576C15.1392 1.93822 12.8603 1.9387 12.0724 3.52571L10.0319 7.63559L5.46928 8.2947C3.70677 8.54925 3.00323 10.7038 4.27806 11.9392L7.57963 15.1383L6.80025 19.6554C6.49922 21.4004 8.34303 22.7313 9.919 21.9079L13.9999 19.7751L18.0809 21.9079C19.6547 22.7303 21.5007 21.4001 21.1997 19.6554L20.4203 15.1383L23.7219 11.9392C24.997 10.7033 24.2923 8.5492 22.5305 8.2947ZM22.4357 10.6277L18.7873 14.1629C18.6804 14.2665 18.6004 14.3944 18.5543 14.5356C18.5081 14.6768 18.4972 14.8271 18.5224 14.9734L19.3837 19.9651C19.4269 20.2158 19.1645 20.4051 18.9382 20.2869L14.4285 17.9301C14.2963 17.8611 14.1492 17.825 13.9999 17.825C13.8505 17.825 13.7034 17.8611 13.5712 17.9301L9.06157 20.2869C8.83508 20.4052 8.57281 20.2157 8.61604 19.9651L9.47731 14.9734C9.50254 14.8271 9.49162 14.6768 9.44547 14.5356C9.39931 14.3944 9.31932 14.2665 9.21239 14.1629L5.56401 10.6277C5.38076 10.4502 5.481 10.1437 5.7342 10.1071L10.7761 9.37878C10.9239 9.35744 11.0643 9.30069 11.1851 9.21343C11.3059 9.12617 11.4036 9.01102 11.4697 8.8779L13.7246 4.33624C13.8377 4.10831 14.162 4.10815 14.2752 4.3363L16.5301 8.8779C16.5962 9.01103 16.6939 9.12619 16.8147 9.21344C16.9355 9.3007 17.0759 9.35744 17.2237 9.37878L22.2656 10.1071C22.5187 10.1437 22.6189 10.4503 22.4357 10.6277ZM7.45408 2.79394L6.35235 1.28656C6.05321 0.877484 5.47716 0.786697 5.06564 1.08406C4.65407 1.38132 4.56279 1.954 4.86188 2.36313L5.96361 3.87045C6.26286 4.27974 6.8389 4.37015 7.25031 4.07295C7.66189 3.77574 7.75317 3.20307 7.45408 2.79394ZM3.79799 16.3023C3.64086 15.8213 3.12117 15.5579 2.63721 15.7143L0.818392 16.3018C0.33454 16.4581 0.0697818 16.9747 0.226963 17.4557C0.384415 17.9375 0.904971 18.1998 1.38774 18.0436L3.20656 17.4561C3.69046 17.2998 3.95522 16.7832 3.79799 16.3023ZM22.9341 1.08412C22.5226 0.786858 21.9465 0.877484 21.6474 1.28662L20.5457 2.79394C20.2466 3.20307 20.3378 3.7758 20.7494 4.073C21.1612 4.37037 21.7372 4.27947 22.0361 3.8705L23.1379 2.36318C23.4369 1.95405 23.3457 1.38132 22.9341 1.08412ZM27.1812 16.3018L25.3624 15.7143C24.8786 15.5578 24.3589 15.8213 24.2016 16.3023C24.0444 16.7832 24.3092 17.2999 24.7931 17.4561L26.6119 18.0436C27.0947 18.1997 27.6152 17.9374 27.7727 17.4557C27.9299 16.9747 27.6651 16.4581 27.1812 16.3018ZM13.9998 23.4009C13.4911 23.4009 13.0787 23.8109 13.0787 24.3166V26.1752C13.0787 26.6809 13.4911 27.0909 13.9998 27.0909C14.5086 27.0909 14.921 26.6809 14.921 26.1752V24.3166C14.9211 23.8109 14.5086 23.4009 13.9998 23.4009Z" fill="white"/>
</svg>
