<svg width="38" height="36" viewBox="0 0 38 36" fill="none" xmlns="http://www.w3.org/2000/svg">
<path d="M30.7297 10.1553L24.4561 9.24905L21.6504 3.59796C20.5667 1.4151 17.4331 1.41576 16.3498 3.59789L13.5441 9.24898L7.27051 10.1553C4.84705 10.5053 3.87968 13.4678 5.63258 15.1665L10.1722 19.5653L9.10059 25.7762C8.68667 28.1756 11.2219 30.0056 13.3889 28.8734L19.0002 25.9408L24.6115 28.8734C26.7755 30.0042 29.3137 28.1752 28.8998 25.7762L27.8282 19.5652L32.3679 15.1664C34.1211 13.4671 33.1521 10.5052 30.7297 10.1553ZM30.5994 13.3632L25.5828 18.224C25.4358 18.3665 25.3258 18.5424 25.2624 18.7365C25.1989 18.9307 25.1839 19.1373 25.2186 19.3385L26.4028 26.2021C26.4623 26.5468 26.1015 26.8071 25.7902 26.6445L19.5895 23.404C19.4077 23.309 19.2054 23.2594 19.0001 23.2594C18.7947 23.2594 18.5924 23.309 18.4107 23.404L12.2099 26.6445C11.8985 26.8072 11.5379 26.5467 11.5973 26.2021L12.7815 19.3385C12.8162 19.1373 12.8012 18.9307 12.7378 18.7365C12.6743 18.5424 12.5643 18.3665 12.4173 18.224L7.40076 13.3632C7.14879 13.1191 7.28661 12.6976 7.63477 12.6473L14.5674 11.6459C14.7706 11.6165 14.9636 11.5385 15.1297 11.4185C15.2959 11.2985 15.4302 11.1402 15.5211 10.9572L18.6215 4.71238C18.7771 4.39897 19.223 4.39875 19.3787 4.71245L22.4791 10.9572C22.57 11.1402 22.7043 11.2985 22.8704 11.4185C23.0366 11.5385 23.2296 11.6165 23.4328 11.6459L30.3654 12.6473C30.7135 12.6976 30.8513 13.1191 30.5994 13.3632ZM9.9996 2.59171L8.48472 0.519068C8.07341 -0.0434138 7.28134 -0.168246 6.7155 0.240631C6.14958 0.64936 6.02408 1.43679 6.43533 1.99935L7.9502 4.07191C8.36167 4.63469 9.15373 4.75901 9.71943 4.35035C10.2853 3.94169 10.4108 3.15426 9.9996 2.59171ZM4.97248 21.1656C4.75643 20.5044 4.04185 20.1421 3.3764 20.3573L0.875532 21.1651C0.210237 21.38 -0.153806 22.0902 0.0623188 22.7516C0.278815 23.4141 0.994579 23.7747 1.65839 23.56L4.15926 22.7522C4.82463 22.5373 5.18867 21.827 4.97248 21.1656ZM31.2846 0.240705C30.7188 -0.168025 29.9266 -0.0434139 29.5154 0.519142L28.0005 2.59171C27.5893 3.15426 27.7148 3.94177 28.2807 4.35042C28.8468 4.7593 29.6389 4.63432 30.0499 4.07199L31.5648 1.99942C31.976 1.43686 31.8505 0.64936 31.2846 0.240705ZM37.1244 21.1651L34.6236 20.3573C33.9583 20.142 33.2437 20.5043 33.0275 21.1656C32.8113 21.827 33.1753 22.5374 33.8407 22.7522L36.3416 23.56C37.0055 23.7746 37.7212 23.414 37.9377 22.7516C38.1539 22.0903 37.7897 21.38 37.1244 21.1651ZM19 30.9263C18.3005 30.9263 17.7334 31.49 17.7334 32.1854V34.7409C17.7334 35.4363 18.3005 36 19 36C19.6995 36 20.2666 35.4363 20.2666 34.7409V32.1854C20.2667 31.49 19.6996 30.9263 19 30.9263Z" fill="white"/>
</svg>
