<svg width="24" height="27" viewBox="0 0 24 27" fill="none" xmlns="http://www.w3.org/2000/svg">
<path d="M23.0423 16.6648C23.4115 16.2573 23.6365 15.7193 23.6365 15.1307C23.6365 13.862 22.5923 12.8296 21.3092 12.8296H16.7922C17.2396 11.4873 17.4304 9.70618 17.4304 8.94271V8.17618C17.4304 6.48459 16.0382 5.108 14.3274 5.108H13.5516C13.1958 5.108 12.8855 5.34732 12.7992 5.68891L12.3766 7.36056C11.7845 9.70158 9.90455 12.2845 7.95895 12.7539C7.61814 11.901 6.7767 11.2955 5.79407 11.2955H1.13953C0.711309 11.2955 0.36377 11.6391 0.36377 12.0625V25.8694C0.36377 26.2928 0.711309 26.6364 1.13953 26.6364H5.79407C6.71929 26.6364 7.51987 26.1 7.89482 25.3248L10.5603 26.2033C11.4318 26.4907 12.3399 26.6364 13.2589 26.6364H19.7577C21.0408 26.6364 22.085 25.604 22.085 24.3353C22.085 24.0361 22.0271 23.7498 21.9216 23.4874C22.9083 23.221 23.6365 22.3266 23.6365 21.2671C23.6365 20.6785 23.4115 20.1406 23.0423 19.733C23.4115 19.3254 23.6365 18.7875 23.6365 18.1989C23.6365 17.6103 23.4115 17.0724 23.0423 16.6648ZM6.56983 24.3353C6.56983 24.7582 6.22177 25.1023 5.79407 25.1023H1.91528V12.8296H5.79407C6.22177 12.8296 6.56983 13.1737 6.56983 13.5966V24.3353ZM19.7577 17.4319H21.3092C21.7369 17.4319 22.085 17.776 22.085 18.1989C22.085 18.6218 21.7369 18.966 21.3092 18.966H19.7577C19.3295 18.966 18.982 19.3096 18.982 19.733C18.982 20.1564 19.3295 20.5 19.7577 20.5H21.3092C21.7369 20.5 22.085 20.8442 22.085 21.2671C22.085 21.69 21.7369 22.0341 21.3092 22.0341H19.7577C19.3295 22.0341 18.982 22.3778 18.982 22.8012C18.982 23.2246 19.3295 23.5682 19.7577 23.5682C20.1854 23.5682 20.5335 23.9124 20.5335 24.3353C20.5335 24.7582 20.1854 25.1023 19.7577 25.1023H13.2589C12.507 25.1023 11.7638 24.9832 11.0506 24.7479L8.12135 23.7825V14.2911C9.33825 14.0625 10.5293 13.3006 11.6045 12.0533C12.6544 10.8353 13.5056 9.22039 13.8816 7.73283L14.1573 6.64209H14.3274C15.1828 6.64209 15.8789 7.33039 15.8789 8.17618V8.94271C15.8789 9.9726 15.5531 11.948 15.1363 12.8296H13.5516C13.1234 12.8296 12.7759 13.1732 12.7759 13.5966C12.7759 14.02 13.1234 14.3637 13.5516 14.3637H21.3092C21.7369 14.3637 22.085 14.7078 22.085 15.1307C22.085 15.5536 21.7369 15.8978 21.3092 15.8978H19.7577C19.3295 15.8978 18.982 16.2414 18.982 16.6648C18.982 17.0882 19.3295 17.4319 19.7577 17.4319Z" fill="#0054AA"/>
<path d="M4.24256 23.5682C4.671 23.5682 5.01832 23.2248 5.01832 22.8012C5.01832 22.3776 4.671 22.0341 4.24256 22.0341C3.81412 22.0341 3.4668 22.3776 3.4668 22.8012C3.4668 23.2248 3.81412 23.5682 4.24256 23.5682Z" fill="#0054AA"/>
<path d="M15.1032 0.45459C14.6747 0.45459 14.3274 0.798022 14.3274 1.22164V2.80686C14.3274 3.23048 14.6747 3.57391 15.1032 3.57391C15.5316 3.57391 15.8789 3.23048 15.8789 2.80686V1.22164C15.8789 0.798022 15.5316 0.45459 15.1032 0.45459ZM11.8119 3.83716L10.7148 2.7524C10.4119 2.45285 9.92069 2.45285 9.61773 2.7524C9.31477 3.05196 9.31477 3.5376 9.61773 3.83716L10.7148 4.92191C11.0177 5.22142 11.509 5.22147 11.8119 4.92191C12.1148 4.62236 12.1148 4.13672 11.8119 3.83716ZM20.5886 2.7524C20.2857 2.45285 19.7945 2.45285 19.4915 2.7524L18.3944 3.83711C18.0915 4.13666 18.0915 4.62231 18.3944 4.92186C18.6974 5.22142 19.1886 5.22147 19.4915 4.92191L20.5886 3.83716C20.8916 3.5376 20.8916 3.05196 20.5886 2.7524Z" fill="#0054AA"/>
</svg>