<svg width="32" height="36" viewBox="0 0 32 36" fill="none" xmlns="http://www.w3.org/2000/svg">
<path d="M31.1829 22.2891C31.6907 21.7287 32 20.989 32 20.1797C32 18.4352 30.5643 17.0156 28.8 17.0156H22.5892C23.2043 15.1699 23.4667 12.7209 23.4667 11.6712V10.6172C23.4667 8.29125 21.5524 6.39844 19.2 6.39844H18.1333C17.6441 6.39844 17.2174 6.7275 17.0987 7.19719L16.5177 9.4957C15.7035 12.7146 13.1186 16.2661 10.4434 16.9116C9.97476 15.7387 8.81778 14.9062 7.46667 14.9062H1.06667C0.477867 14.9062 0 15.3787 0 15.9609V34.9453C0 35.5275 0.477867 36 1.06667 36H7.46667C8.73884 36 9.83964 35.2624 10.3552 34.1965L14.0203 35.4045C15.2185 35.7996 16.4672 36 17.7308 36H26.6667C28.4309 36 29.8667 34.5804 29.8667 32.8359C29.8667 32.4246 29.787 32.0309 29.642 31.6702C30.9988 31.3038 32 30.0741 32 28.6172C32 27.8079 31.6907 27.0682 31.1829 26.5078C31.6907 25.9474 32 25.2077 32 24.3984C32 23.5891 31.6907 22.8495 31.1829 22.2891ZM8.53333 32.8359C8.53333 33.4174 8.05476 33.8906 7.46667 33.8906H2.13333V17.0156H7.46667C8.05476 17.0156 8.53333 17.4888 8.53333 18.0703V32.8359ZM26.6667 23.3438H28.8C29.3881 23.3438 29.8667 23.817 29.8667 24.3984C29.8667 24.9799 29.3881 25.4531 28.8 25.4531H26.6667C26.0779 25.4531 25.6 25.9256 25.6 26.5078C25.6 27.09 26.0779 27.5625 26.6667 27.5625H28.8C29.3881 27.5625 29.8667 28.0357 29.8667 28.6172C29.8667 29.1987 29.3881 29.6719 28.8 29.6719H26.6667C26.0779 29.6719 25.6 30.1444 25.6 30.7266C25.6 31.3088 26.0779 31.7812 26.6667 31.7812C27.2548 31.7812 27.7333 32.2545 27.7333 32.8359C27.7333 33.4174 27.2548 33.8906 26.6667 33.8906H17.7308C16.6969 33.8906 15.675 33.7268 14.6944 33.4034L10.6667 32.0759V19.0252C12.3399 18.7109 13.9776 17.6632 15.456 15.9483C16.8996 14.2734 18.07 12.053 18.587 10.0076L18.966 8.50781H19.2C20.3762 8.50781 21.3333 9.45422 21.3333 10.6172V11.6712C21.3333 13.0873 20.8853 15.8034 20.3122 17.0156H18.1333C17.5445 17.0156 17.0667 17.4881 17.0667 18.0703C17.0667 18.6525 17.5445 19.125 18.1333 19.125H28.8C29.3881 19.125 29.8667 19.5982 29.8667 20.1797C29.8667 20.7612 29.3881 21.2344 28.8 21.2344H26.6667C26.0779 21.2344 25.6 21.7069 25.6 22.2891C25.6 22.8713 26.0779 23.3438 26.6667 23.3438Z" fill="#0054AA"/>
<path d="M5.33333 31.7812C5.92244 31.7812 6.4 31.309 6.4 30.7266C6.4 30.1441 5.92244 29.6719 5.33333 29.6719C4.74423 29.6719 4.26667 30.1441 4.26667 30.7266C4.26667 31.309 4.74423 31.7812 5.33333 31.7812Z" fill="#0054AA"/>
<path d="M20.2667 0C19.6776 0 19.2 0.472219 19.2 1.05469V3.23438C19.2 3.81684 19.6776 4.28906 20.2667 4.28906C20.8558 4.28906 21.3333 3.81684 21.3333 3.23438V1.05469C21.3333 0.472219 20.8558 0 20.2667 0ZM15.7412 4.65103L14.2327 3.15949C13.8162 2.7476 13.1408 2.7476 12.7242 3.15949C12.3076 3.57138 12.3076 4.23914 12.7242 4.65103L14.2327 6.14257C14.6492 6.55439 15.3247 6.55446 15.7412 6.14257C16.1577 5.73068 16.1577 5.06292 15.7412 4.65103ZM27.8091 3.15949C27.3926 2.7476 26.7172 2.7476 26.3007 3.15949L24.7922 4.65096C24.3756 5.06285 24.3756 5.73061 24.7922 6.1425C25.2087 6.55439 25.8841 6.55446 26.3007 6.14257L27.8091 4.65103C28.2257 4.23914 28.2257 3.57138 27.8091 3.15949Z" fill="#0054AA"/>
</svg>
