<svg width="28" height="28" viewBox="0 0 28 28" fill="none" xmlns="http://www.w3.org/2000/svg">
<path d="M14 0C11.2311 0 8.52431 0.821086 6.22202 2.35943C3.91973 3.89777 2.12532 6.08427 1.06569 8.64243C0.00606603 11.2006 -0.271181 14.0155 0.269012 16.7313C0.809205 19.447 2.14258 21.9416 4.10051 23.8995C6.05845 25.8574 8.55301 27.1908 11.2687 27.731C13.9845 28.2712 16.7994 27.9939 19.3576 26.9343C21.9157 25.8747 24.1022 24.0803 25.6406 21.778C27.1789 19.4757 28 16.7689 28 14C28 10.287 26.525 6.72601 23.8995 4.10051C21.274 1.475 17.713 0 14 0ZM22.0691 19.4791C21.6618 19.5364 19.67 19.4791 19.5666 19.4791C19.0517 19.4858 18.5549 19.2892 18.1841 18.9318C17.7641 18.5261 17.3886 18.0807 16.9782 17.6591C16.8572 17.5297 16.7258 17.4105 16.5852 17.3027C16.2575 17.0514 15.933 17.107 15.7786 17.4952C15.6582 17.913 15.5741 18.3404 15.5273 18.7727C15.5002 19.1641 15.2521 19.4091 14.813 19.4361C14.5409 19.4505 14.2689 19.4568 14 19.4489C13.0201 19.4435 12.0554 19.2052 11.1857 18.7536C10.2444 18.2296 9.42417 17.513 8.77864 16.6505C7.71751 15.295 6.86955 13.8059 6.11228 12.2707C6.07251 12.1927 5.29614 10.5414 5.27705 10.4634C5.20705 10.2041 5.27705 9.95432 5.49182 9.86682C5.62864 9.81432 8.18682 9.86682 8.22978 9.86682C8.4201 9.86553 8.6059 9.92478 8.76033 10.036C8.91476 10.1473 9.02982 10.3047 9.08887 10.4857C9.56219 11.6964 10.2096 12.8315 11.0107 13.8552C11.1229 13.9916 11.2542 14.1111 11.4005 14.21C11.6089 14.3532 11.8061 14.3039 11.8921 14.062C11.994 13.7288 12.0538 13.384 12.0702 13.0359C12.0846 12.3455 12.0702 11.892 12.0321 11.2016C12.0066 10.7593 11.8507 10.3727 11.1984 10.247C10.998 10.2105 10.9805 10.045 11.1093 9.87955C11.3782 9.5375 11.7457 9.48182 12.1577 9.46114C12.7718 9.42614 13.3859 9.45 14 9.46114H14.1336C14.4009 9.46016 14.6675 9.48736 14.9291 9.54227C15.0838 9.57386 15.2243 9.65456 15.3295 9.77238C15.4347 9.89019 15.499 10.0388 15.513 10.1961C15.5445 10.3703 15.5579 10.5474 15.5527 10.7243C15.5368 11.4768 15.5002 12.2309 15.4923 12.9834C15.4849 13.282 15.5121 13.5804 15.5734 13.8727C15.6609 14.2736 15.9361 14.3739 16.2098 14.0843C16.5644 13.7108 16.8894 13.3103 17.1818 12.8864C17.7001 12.1136 18.1272 11.2835 18.4546 10.4125C18.6327 9.96546 18.7727 9.86682 19.25 9.86682H21.9641C22.1255 9.86399 22.2864 9.88544 22.4414 9.93046C22.4962 9.94487 22.5475 9.97046 22.592 10.0056C22.6366 10.0408 22.6733 10.0848 22.7001 10.1348C22.7268 10.1848 22.7429 10.2398 22.7474 10.2964C22.7519 10.3529 22.7447 10.4098 22.7261 10.4634C22.5925 11.0584 22.2711 11.5659 21.9307 12.0543C21.3786 12.8355 20.7964 13.5975 20.2316 14.3691C20.1637 14.4688 20.1015 14.5724 20.0455 14.6793C19.8323 15.0643 19.8482 15.2791 20.1568 15.5973C20.65 16.1048 21.1766 16.5789 21.6523 17.1007C22.0012 17.4803 22.3163 17.8897 22.5941 18.3241C22.933 18.8714 22.7182 19.3868 22.0691 19.4791Z" fill="#05ADFF"/>
</svg>
